<?xml version="1.0" standalone="no"?>
<!DOCTYPE svg PUBLIC "-//W3C//DTD SVG 20010904//EN"
 "http://www.w3.org/TR/2001/REC-SVG-20010904/DTD/svg10.dtd">
<svg version="1.0" xmlns="http://www.w3.org/2000/svg"
 width="600.000000pt" height="600.000000pt" viewBox="0 0 600.000000 600.000000"
 preserveAspectRatio="xMidYMid meet">
<metadata>
Created by potrace 1.11, written by Peter Selinger 2001-2013
</metadata>
<g transform="translate(0.000000,600.000000) scale(0.100000,-0.100000)"
fill="#000000" stroke="none">
<path d="M5516 5805 c-10 -8 -23 -12 -27 -9 -5 3 -9 2 -9 -3 0 -4 -15 -15 -32
-22 -18 -8 -39 -21 -46 -28 -8 -7 -18 -10 -24 -7 -7 4 -8 2 -4 -4 4 -7 1 -12
-8 -12 -9 0 -16 -5 -16 -11 0 -5 -4 -7 -10 -4 -5 3 -10 3 -10 -2 0 -4 -18 -17
-40 -27 -22 -11 -40 -22 -40 -26 0 -4 -13 -13 -30 -20 -16 -7 -30 -17 -30 -22
0 -5 -4 -7 -8 -4 -5 3 -19 -5 -33 -18 -13 -12 -32 -25 -41 -29 -10 -3 -18 -11
-18 -17 0 -6 -4 -8 -10 -5 -5 3 -10 2 -10 -4 0 -6 -11 -13 -25 -17 -14 -3 -23
-10 -20 -14 3 -5 -4 -11 -15 -15 -11 -3 -20 -11 -20 -16 0 -6 -5 -7 -10 -4 -6
3 -13 -1 -16 -9 -3 -9 -12 -16 -19 -16 -7 0 -15 -7 -19 -15 -3 -8 -10 -15 -16
-15 -13 0 -91 -59 -103 -78 -5 -7 -12 -10 -18 -7 -5 4 -9 2 -9 -4 0 -5 -9 -13
-20 -16 -11 -4 -18 -10 -16 -14 3 -4 -9 -16 -27 -26 -18 -10 -45 -32 -60 -47
-16 -15 -34 -25 -40 -21 -7 3 -9 3 -5 -2 4 -4 -19 -28 -50 -53 -31 -26 -63
-52 -70 -59 -7 -7 -18 -13 -23 -13 -6 0 -7 -4 -4 -10 3 -5 1 -10 -4 -10 -12 0
-62 -41 -94 -77 -12 -13 -24 -23 -29 -23 -4 0 -30 -22 -58 -50 -28 -27 -55
-50 -60 -50 -6 0 -10 -5 -10 -11 0 -13 -51 -55 -62 -51 -5 1 -7 -2 -6 -6 4
-10 -62 -72 -76 -72 -5 0 -7 -3 -3 -6 6 -7 -63 -74 -76 -74 -5 0 -6 -4 -2 -9
3 -5 -4 -12 -15 -16 -11 -3 -20 -14 -20 -22 0 -9 -3 -13 -7 -10 -3 4 -15 -5
-25 -20 -10 -16 -18 -24 -18 -19 0 6 -11 -4 -23 -22 -13 -17 -28 -28 -32 -24
-5 4 -5 -1 -2 -11 4 -10 3 -16 -1 -14 -4 3 -35 -24 -68 -59 -34 -35 -61 -64
-59 -64 1 0 -21 -25 -49 -55 -28 -30 -69 -76 -91 -101 -22 -26 -48 -54 -57
-63 -10 -8 -18 -21 -18 -28 0 -7 -4 -13 -8 -13 -4 0 -26 -24 -47 -52 -22 -29
-50 -63 -62 -76 -13 -13 -23 -27 -23 -33 0 -6 -4 -7 -10 -4 -5 3 -10 -1 -10
-9 0 -8 -11 -27 -24 -42 -49 -54 -56 -64 -56 -80 0 -8 -4 -13 -9 -9 -5 3 -12
-4 -16 -15 -3 -11 -11 -20 -16 -20 -6 0 -8 -4 -5 -8 3 -5 -4 -16 -15 -25 -10
-9 -19 -24 -19 -34 0 -9 -3 -14 -6 -10 -4 3 -29 -29 -57 -71 -64 -97 -77 -119
-69 -126 3 -3 0 -6 -6 -6 -7 0 -12 -8 -12 -17 0 -14 -2 -15 -9 -5 -6 10 -10 3
-15 -22 -4 -23 -11 -34 -18 -30 -6 4 -9 3 -6 -2 7 -11 -37 -95 -46 -89 -3 3
-4 2 -2 -1 3 -4 -6 -27 -19 -53 -13 -25 -33 -67 -44 -93 -12 -26 -25 -50 -31
-53 -5 -3 -10 -14 -10 -24 0 -25 -35 -102 -43 -95 -4 4 -4 -3 -2 -15 2 -13 -2
-24 -10 -27 -7 -3 -11 -12 -8 -20 3 -8 1 -20 -5 -27 -17 -22 -52 -128 -46
-139 4 -6 2 -8 -4 -5 -6 5 -13 -8 -17 -33 -4 -23 -11 -37 -17 -34 -5 4 -5 -4
2 -16 8 -15 8 -20 1 -16 -7 4 -11 -1 -11 -13 0 -12 -4 -21 -10 -21 -5 0 -8
-10 -6 -22 2 -13 -3 -33 -11 -45 -8 -12 -12 -27 -8 -33 3 -5 2 -10 -3 -10 -5
0 -9 -6 -10 -12 0 -7 -3 -23 -6 -36 -21 -79 -29 -116 -30 -134 0 -9 -3 -15 -7
-12 -3 2 -9 -13 -12 -34 -10 -59 -13 -71 -20 -78 -11 -11 -8 -26 3 -19 6 4 1
-10 -10 -30 -11 -20 -16 -34 -10 -30 5 3 10 2 10 -4 0 -5 -4 -12 -9 -16 -6 -3
-10 -13 -10 -23 0 -9 -2 -26 -5 -37 -2 -11 -5 -35 -5 -53 -1 -18 -5 -31 -9
-28 -5 3 -9 -1 -9 -9 0 -8 3 -12 7 -10 4 2 7 -2 7 -10 0 -8 -4 -12 -9 -9 -4 3
-8 -9 -8 -25 0 -41 0 -43 -12 -65 -8 -14 -7 -17 3 -11 8 6 10 4 4 -6 -5 -7
-10 -27 -11 -44 -1 -20 -6 -29 -15 -27 -8 2 -6 -5 6 -19 11 -12 14 -19 7 -15
-9 5 -12 -4 -12 -34 0 -30 -3 -39 -12 -34 -9 5 -9 2 1 -9 10 -13 10 -17 1 -17
-9 0 -9 -4 1 -17 8 -9 9 -14 3 -10 -7 4 -11 -6 -13 -26 -4 -75 -8 -104 -16
-117 -5 -9 -4 -11 3 -6 7 4 12 3 12 -3 0 -5 -4 -12 -8 -15 -4 -2 -8 -24 -7
-48 0 -24 -4 -46 -10 -50 -6 -5 -5 -8 3 -8 7 0 10 -5 6 -11 -4 -6 -9 -57 -11
-113 -3 -55 -10 -107 -17 -115 -8 -11 -8 -13 0 -8 7 4 12 -2 12 -18 0 -14 -6
-25 -12 -25 -6 0 -6 -4 2 -9 8 -4 14 -12 14 -16 0 -4 -6 -12 -14 -16 -11 -7
-11 -9 1 -9 10 0 11 -3 2 -14 -9 -11 -9 -16 0 -21 8 -6 7 -10 -2 -16 -11 -7
-11 -9 1 -9 13 0 13 -1 0 -10 -10 -6 -11 -10 -2 -10 6 0 12 -5 12 -11 0 -5 -4
-8 -8 -5 -4 2 -8 -4 -8 -14 0 -10 4 -16 9 -13 5 3 4 -4 -2 -15 -14 -27 -14
-35 2 -26 7 5 7 1 -2 -10 -13 -15 -13 -19 0 -27 8 -5 9 -9 3 -9 -6 0 -11 -11
-11 -25 0 -14 5 -25 11 -25 6 0 5 -4 -3 -9 -13 -8 -13 -12 0 -27 8 -10 9 -15
2 -11 -8 5 -11 0 -10 -13 1 -11 6 -20 12 -20 5 0 3 -5 -5 -10 -12 -8 -12 -10
-1 -10 11 0 11 -3 1 -15 -8 -10 -9 -15 -1 -15 7 0 8 -8 1 -25 -6 -16 -6 -26 1
-31 8 -4 7 -9 -2 -15 -11 -7 -11 -9 1 -9 13 0 13 -1 0 -10 -8 -5 -10 -10 -5
-10 6 0 11 -9 12 -20 1 -13 -2 -18 -10 -13 -9 5 -9 3 0 -8 7 -8 12 -24 12 -34
-1 -73 5 -135 13 -135 5 0 6 -4 3 -10 -3 -5 -3 -10 2 -10 4 0 13 -11 20 -25 8
-19 8 -24 0 -19 -7 3 -4 -1 5 -9 10 -8 15 -16 12 -19 -2 -3 2 -8 11 -11 13 -5
15 6 16 73 2 92 1 91 13 109 6 10 5 12 -2 7 -13 -8 -17 6 -5 18 4 3 8 21 9 39
1 17 5 66 9 107 4 41 8 84 9 95 1 11 6 26 10 34 6 10 5 12 -2 7 -7 -4 -12 -2
-12 3 0 6 4 11 9 11 6 0 10 8 10 18 0 9 3 42 6 72 4 30 7 65 8 78 0 12 4 22 7
22 6 0 12 40 12 83 0 15 4 27 9 27 5 0 9 14 9 31 0 17 5 40 11 51 8 16 8 19
-1 13 -9 -6 -9 -3 -1 12 6 11 7 23 4 27 -3 3 -2 6 4 6 6 0 10 8 10 18 0 44 4
63 11 58 5 -3 9 1 9 9 0 8 -5 11 -11 8 -6 -3 -5 0 2 8 6 7 12 26 12 42 0 17 4
26 10 22 7 -4 9 3 6 18 -2 14 -2 28 2 31 6 7 11 25 14 59 1 9 6 17 11 17 5 0
7 6 4 14 -3 8 -3 17 1 20 3 4 7 13 9 21 4 19 7 29 22 85 8 25 15 52 16 60 1 8
7 14 12 13 6 -1 9 11 7 27 -2 16 1 32 6 35 6 3 10 17 10 31 0 14 4 22 10 19 6
-3 7 1 4 9 -3 9 -1 16 5 16 6 0 10 3 10 8 -5 29 2 62 12 56 7 -4 10 -1 7 7 -3
8 1 26 9 42 7 15 10 27 6 27 -4 0 -2 5 5 12 7 7 12 20 12 31 0 10 4 16 8 13 4
-2 9 3 10 12 4 38 9 53 20 64 7 7 12 19 12 28 0 8 7 28 15 44 8 15 15 35 15
42 0 8 4 14 10 14 5 0 9 3 9 8 -1 4 0 10 1 15 1 4 3 10 4 15 1 4 9 21 19 38 9
17 13 34 10 38 -4 3 -1 6 5 6 7 0 12 3 11 7 -2 14 13 53 20 53 4 0 7 10 8 22
1 11 6 24 12 27 5 4 13 18 16 34 4 15 10 25 14 23 4 -3 8 4 8 15 1 12 8 27 15
36 6 8 13 22 14 31 2 8 7 18 12 21 7 5 22 33 27 51 4 16 69 136 75 140 5 3 12
18 15 33 4 15 11 27 16 27 5 0 9 7 9 15 0 8 5 15 11 15 5 0 7 5 4 10 -3 6 -1
10 5 10 6 0 9 4 5 9 -3 6 3 14 12 20 10 6 14 11 10 11 -5 0 1 13 12 29 12 16
21 37 21 46 0 9 4 14 9 11 7 -5 19 19 19 40 1 3 10 13 21 23 11 9 23 29 26 44
4 15 11 25 15 22 7 -4 22 18 24 37 1 4 9 17 19 28 9 11 17 25 17 30 0 6 5 10
10 10 6 0 10 6 10 13 0 12 9 26 50 74 5 7 10 17 10 23 0 5 5 10 10 10 6 0 10
6 10 13 0 6 14 27 30 46 17 18 30 36 30 40 0 3 13 22 30 41 16 19 27 36 25 39
-3 2 9 17 25 33 17 16 28 34 24 40 -4 7 -3 8 4 4 7 -4 12 -3 12 3 0 6 11 21
25 35 14 14 25 29 25 33 0 4 14 22 30 40 17 18 30 37 30 43 0 6 5 8 10 5 6 -3
10 -1 10 4 0 11 23 42 54 72 11 11 16 19 12 19 -4 0 8 15 27 33 18 17 36 40
40 50 4 10 11 15 17 12 5 -3 10 1 10 9 0 9 7 16 15 16 8 0 15 6 15 14 0 17 56
76 65 68 3 -3 5 0 5 7 0 7 20 32 45 57 25 24 42 44 38 44 -5 1 3 7 17 15 14 8
22 14 19 15 -6 0 79 90 85 90 1 0 3 -7 3 -16 0 -9 -9 -19 -19 -22 -10 -2 -15
-9 -11 -15 3 -6 1 -7 -5 -3 -7 4 -12 1 -12 -9 0 -10 -5 -13 -12 -9 -7 5 -9 2
-5 -9 4 -10 -1 -18 -14 -22 -10 -4 -19 -12 -19 -20 0 -7 -12 -23 -26 -34 -15
-12 -24 -21 -20 -21 6 0 -15 -27 -42 -56 -7 -8 -10 -14 -5 -14 4 0 0 -5 -10
-11 -9 -6 -15 -15 -11 -20 3 -5 2 -8 -3 -7 -4 2 -8 1 -8 -2 -1 -5 -38 -50 -63
-76 -7 -8 -10 -14 -6 -14 4 0 -2 -8 -13 -17 -11 -10 -28 -33 -38 -50 -11 -18
-23 -33 -27 -33 -4 0 -8 -7 -8 -15 0 -9 -7 -18 -15 -21 -8 -4 -12 -10 -9 -15
3 -5 -2 -12 -10 -15 -9 -3 -16 -13 -16 -20 0 -8 -7 -17 -15 -20 -8 -4 -12 -10
-9 -15 3 -5 -2 -12 -10 -15 -9 -3 -13 -10 -10 -15 3 -5 0 -9 -5 -9 -6 0 -11
-6 -11 -14 0 -8 -7 -17 -16 -20 -9 -4 -14 -9 -11 -12 3 -4 -5 -18 -18 -32 -13
-14 -22 -29 -19 -34 3 -4 0 -8 -6 -8 -6 0 -8 -4 -5 -10 3 -5 -1 -10 -9 -10 -9
0 -15 -3 -14 -7 3 -9 -32 -64 -45 -74 -5 -3 -8 -10 -8 -15 1 -5 -5 -16 -13
-25 -8 -9 -17 -26 -21 -38 -3 -12 -11 -21 -16 -21 -5 0 -9 -7 -9 -15 0 -8 -4
-15 -9 -15 -8 0 -22 -35 -18 -44 1 -2 -9 -14 -23 -26 -14 -12 -19 -18 -11 -14
8 4 3 -8 -12 -28 -15 -19 -27 -40 -27 -46 0 -7 -3 -12 -7 -12 -5 0 -17 -20
-28 -45 -11 -25 -23 -45 -28 -45 -4 0 -5 -4 -2 -10 3 -5 1 -10 -4 -10 -6 0
-11 -7 -11 -16 0 -8 -4 -13 -8 -10 -4 2 -9 -5 -9 -17 -1 -12 -9 -27 -18 -33
-9 -7 -15 -15 -14 -19 2 -8 -83 -177 -93 -185 -3 -3 -10 -18 -13 -33 -4 -15
-11 -27 -17 -27 -5 0 -6 -4 -3 -10 3 -5 1 -10 -4 -10 -6 0 -10 -3 -9 -7 1 -5
-14 -43 -35 -86 -20 -44 -37 -83 -37 -88 0 -5 -6 -9 -12 -9 -10 0 -10 -2 0 -9
11 -6 10 -10 -3 -15 -10 -4 -15 -12 -11 -22 4 -10 2 -13 -6 -8 -7 5 -9 2 -5
-9 3 -9 0 -18 -8 -21 -8 -3 -12 -12 -9 -21 3 -8 1 -15 -5 -15 -6 0 -11 -9 -11
-20 0 -11 -4 -20 -9 -20 -6 0 -8 -9 -6 -20 2 -11 0 -20 -6 -20 -5 0 -9 -7 -9
-15 0 -9 -6 -26 -14 -38 -8 -12 -27 -60 -42 -107 -16 -47 -32 -87 -36 -90 -4
-3 -9 -15 -11 -25 -1 -11 -6 -26 -10 -33 -5 -7 -11 -25 -13 -39 -3 -15 -10
-30 -15 -34 -6 -3 -10 -9 -10 -13 4 -25 0 -46 -8 -42 -4 3 -7 -6 -5 -19 1 -14
-2 -25 -7 -25 -5 0 -9 -11 -9 -24 0 -14 -5 -28 -10 -31 -6 -4 -8 -11 -5 -16 4
-5 2 -9 -2 -9 -5 0 -10 -9 -11 -20 -4 -43 -6 -50 -14 -50 -4 0 -8 -16 -8 -36
0 -21 -4 -33 -10 -29 -6 4 -10 3 -8 -2 1 -4 -2 -28 -7 -53 -5 -25 -8 -48 -7
-52 1 -5 -3 -8 -8 -8 -6 0 -10 -13 -10 -30 0 -16 -4 -30 -8 -30 -5 0 -9 -6 -9
-12 0 -7 -4 -29 -8 -48 -4 -19 -8 -39 -9 -45 -1 -5 -5 -16 -9 -22 -5 -7 -6
-13 -3 -13 3 0 1 -11 -4 -25 -7 -19 -6 -23 5 -18 8 3 15 10 15 15 0 6 11 21
26 34 14 13 22 24 18 24 -4 0 3 9 16 20 13 11 20 20 17 20 -3 0 9 15 26 34 60
63 91 101 89 108 -1 5 2 7 7 5 5 -1 30 19 55 46 25 26 48 47 50 47 3 0 20 16
39 35 19 19 38 35 44 35 5 0 16 11 23 25 7 13 16 24 19 23 18 -2 32 3 27 10
-2 4 19 23 49 42 29 19 51 38 49 41 -2 3 9 12 24 20 15 7 34 20 43 29 9 8 26
22 39 30 12 8 28 20 35 27 7 7 15 9 19 6 3 -4 6 -2 6 4 0 5 22 25 50 44 27 19
50 38 50 42 0 5 4 6 8 3 5 -3 18 2 28 12 44 40 108 81 117 75 6 -3 7 -1 3 6
-4 6 0 14 11 18 10 4 25 15 34 25 9 10 21 18 28 18 6 0 11 5 11 12 0 6 3 9 6
5 3 -3 16 5 29 19 12 13 30 24 39 24 10 0 15 4 12 8 -2 4 12 19 32 32 20 14
53 40 72 57 19 18 41 33 48 33 7 0 10 5 7 10 -3 6 -2 10 3 10 5 0 28 18 51 40
23 22 44 40 46 40 8 0 175 173 175 182 0 4 7 8 16 8 8 0 12 5 9 10 -3 5 -2 10
4 10 5 0 13 9 16 20 4 11 11 18 16 15 5 -4 9 -2 9 3 0 4 9 18 20 30 12 12 18
22 14 22 -4 0 5 11 20 25 14 13 26 29 26 34 0 5 9 16 20 24 11 8 17 17 13 20
-3 4 -1 7 5 7 7 0 11 6 10 13 -2 6 3 11 11 9 8 -2 11 3 8 13 -4 8 -3 15 1 15
4 0 21 22 37 50 17 27 33 50 38 50 4 0 7 8 7 18 0 11 9 29 20 42 11 12 22 31
25 41 4 11 11 19 16 19 6 0 7 5 3 11 -3 6 -3 14 2 18 15 10 78 145 77 163 0
10 3 15 7 13 4 -3 10 3 13 13 3 9 10 33 16 52 l10 35 -24 -28 c-14 -15 -25
-25 -25 -22 0 3 -13 -7 -29 -22 -45 -44 -83 -76 -121 -103 -19 -13 -40 -31
-47 -40 -7 -8 -13 -11 -13 -6 0 5 -9 -1 -20 -14 -11 -13 -20 -19 -20 -15 0 5
-11 -2 -25 -15 -14 -13 -25 -20 -25 -16 0 4 -9 -2 -20 -12 -11 -10 -33 -25
-48 -32 -15 -8 -35 -21 -44 -29 -10 -8 -18 -11 -18 -7 0 4 -13 -2 -29 -13 -16
-12 -34 -21 -40 -21 -6 0 -11 -4 -11 -9 0 -8 -56 -25 -72 -22 -5 0 -8 -3 -8
-9 0 -5 -4 -10 -10 -10 -21 0 -9 20 15 26 14 3 22 11 18 17 -4 6 2 8 15 5 13
-4 20 -2 19 6 -1 6 6 10 16 9 10 0 16 1 13 4 -7 7 38 43 53 43 6 0 11 5 11 10
0 6 7 10 15 10 8 0 15 4 15 8 0 4 12 15 28 24 15 10 40 28 56 43 16 14 33 25
38 25 5 0 6 5 3 10 -3 6 -1 10 4 10 6 0 21 8 33 17 43 35 234 229 279 285 26
31 49 54 53 51 6 -6 9 13 4 20 -2 2 10 15 26 30 16 15 25 27 21 27 -5 0 0 7
11 15 10 8 16 15 12 15 -4 0 4 12 17 26 14 15 25 33 25 39 0 7 7 15 15 19 8 3
15 12 15 21 0 8 3 15 8 15 4 0 16 16 26 35 11 19 23 35 28 35 5 0 7 4 3 10 -3
5 2 18 12 28 10 10 19 24 20 29 1 6 14 28 28 49 14 20 25 43 25 51 0 8 5 11
12 7 8 -5 9 -2 5 9 -3 10 -3 17 1 17 9 0 33 52 27 58 -3 3 -5 0 -5 -6 0 -6 -9
-9 -20 -7 -11 2 -20 0 -20 -5 0 -9 -30 -22 -41 -17 -3 1 -14 -6 -24 -16 -9
-10 -24 -16 -32 -13 -8 3 -12 2 -9 -2 2 -4 -10 -13 -27 -20 -18 -7 -45 -19
-60 -27 -16 -8 -36 -15 -46 -15 -9 0 -22 -5 -29 -12 -7 -7 -12 -8 -12 -2 0 5
23 23 50 39 28 16 50 34 50 39 0 5 3 6 6 3 4 -4 14 2 23 12 9 10 21 20 27 22
28 10 255 219 238 219 -4 0 3 8 14 19 12 10 22 23 22 29 0 5 7 13 16 16 9 4
14 9 11 12 -3 4 3 15 14 27 10 11 19 27 19 34 0 7 5 13 10 13 6 0 10 5 10 11
0 6 9 24 21 40 11 16 17 29 12 29 -4 0 0 5 10 11 9 6 15 14 12 20 -4 5 -1 9 5
9 6 0 9 4 5 9 -3 5 -1 12 5 16 5 3 10 14 10 23 0 10 9 24 19 31 11 8 17 20 14
28 -3 7 0 13 6 13 6 0 11 6 11 13 0 7 16 50 35 95 19 45 35 84 35 87 1 12 12
42 21 59 8 14 8 16 -3 10 -10 -6 -10 -4 1 9 8 10 15 28 15 40 1 12 4 27 7 32
4 6 5 20 4 32 -1 12 1 20 5 18 4 -2 8 15 9 38 2 23 3 48 4 55 0 6 5 12 11 12
6 0 4 5 -4 10 -12 8 -13 11 -1 19 11 7 11 9 0 14 -10 4 -10 6 -1 6 6 1 12 8
12 17 0 9 -5 12 -12 8 -10 -6 -10 -4 -2 7 6 8 11 28 12 44 1 23 -1 26 -8 15
-6 -9 -10 -10 -10 -3 0 6 5 15 10 18 8 5 7 11 -1 21 -9 11 -8 14 2 14 11 0 11
2 -1 10 -10 6 -11 10 -2 10 6 0 12 5 12 11 0 5 -4 8 -8 5 -5 -3 -10 18 -11 46
-1 29 -6 55 -12 59 -6 3 -10 10 -9 15 3 18 -12 79 -21 85 -5 3 -10 17 -11 32
-1 15 -8 27 -15 27 -8 0 -13 12 -13 31 0 16 -4 28 -9 24 -5 -3 -12 3 -15 13
-6 18 -59 82 -67 82 -2 0 -13 -7 -23 -15z m-1301 -2874 c-9 -8 -36 -10 -30 -2
2 4 11 8 20 8 8 0 13 -3 10 -6z"/>
<path d="M355 4519 c-4 -6 -13 -8 -21 -5 -16 6 -16 8 -19 -67 -1 -32 1 -60 5
-62 4 -3 52 -5 106 -6 59 -1 102 -7 106 -13 5 -7 8 -7 8 0 0 6 19 9 48 6 26
-2 62 -4 79 -5 18 -1 33 -4 33 -7 0 -3 13 -6 29 -7 35 -2 98 -36 129 -69 13
-13 20 -24 17 -24 -4 0 1 -7 9 -15 16 -17 40 -88 38 -118 0 -9 2 -16 6 -13 18
11 22 -295 22 -1444 0 -958 -2 -1320 -10 -1340 -1 -3 -2 -31 -2 -62 -1 -34 -5
-55 -11 -51 -5 3 -4 -4 2 -15 13 -24 15 -43 2 -24 -5 9 -10 -7 -14 -42 -3 -31
-9 -61 -13 -68 -5 -7 -10 -22 -11 -33 -2 -10 -9 -23 -16 -27 -6 -4 -7 -8 -2
-8 6 0 2 -7 -8 -14 -10 -8 -19 -21 -21 -29 -1 -8 -9 -22 -19 -31 -9 -10 -17
-21 -17 -26 0 -5 -9 -11 -20 -15 -11 -3 -19 -11 -17 -16 1 -6 -13 -19 -30 -28
-18 -10 -30 -21 -27 -24 3 -2 -24 -20 -60 -38 -36 -19 -66 -37 -66 -42 0 -4
-4 -6 -9 -3 -5 3 -25 -1 -45 -9 -19 -8 -39 -15 -43 -14 -5 1 -10 0 -13 -1 -10
-4 -46 -10 -65 -12 -11 -1 -26 -6 -34 -12 -12 -9 -13 -8 -6 3 6 11 5 12 -6 5
-8 -5 -18 -9 -24 -10 -5 0 -15 -2 -20 -2 -6 -1 -11 -30 -11 -67 -1 -66 1 -70
42 -64 4 0 11 -5 15 -13 6 -9 9 -9 9 -1 0 14 72 13 82 -2 5 -6 8 -5 8 2 0 15
50 13 50 -2 0 -6 3 -5 8 1 9 15 82 14 82 -1 0 -6 3 -5 8 1 9 14 74 14 84 -1 5
-6 8 -6 8 2 0 15 50 13 50 -2 0 -6 3 -5 8 1 9 15 82 14 82 -1 0 -6 3 -5 8 1 9
14 74 14 84 -1 5 -7 8 -6 8 1 0 16 340 15 340 0 0 -8 3 -7 8 0 9 14 82 14 82
0 0 -8 3 -7 8 0 9 14 104 14 114 -1 5 -6 8 -5 8 3 0 15 41 13 52 -3 5 -6 8 -5
8 3 0 6 9 12 20 12 11 0 20 -6 20 -12 0 -9 3 -10 8 -2 9 14 82 14 82 0 0 -6 5
-3 11 7 6 9 13 15 17 13 4 -3 8 4 8 14 0 10 -3 17 -6 15 -3 -2 -6 5 -6 15 0
10 4 16 8 14 10 -6 11 10 1 20 -4 4 -8 16 -8 26 0 11 -4 20 -10 21 -5 0 -18 5
-29 11 -10 6 -16 6 -13 1 4 -5 0 -10 -8 -10 -8 0 -12 4 -8 9 3 6 -3 9 -13 7
-26 -3 -95 10 -117 22 -11 6 -21 8 -24 5 -3 -3 -19 2 -35 10 -16 8 -34 12 -40
8 -6 -4 -8 -3 -5 3 4 6 -11 18 -33 28 -22 10 -40 22 -40 27 0 4 -6 8 -14 8 -7
0 -32 20 -54 44 -22 24 -43 41 -46 38 -3 -3 -6 2 -6 11 0 9 -4 17 -10 17 -5 0
-10 7 -10 15 0 7 -8 18 -17 24 -10 5 -15 13 -11 16 4 4 -2 16 -13 28 -10 11
-19 31 -19 43 0 12 -4 24 -9 26 -9 3 -24 91 -24 145 0 18 -4 30 -8 27 -4 -2
-4 9 1 26 5 17 5 28 1 26 -11 -7 -12 89 -13 1499 -1 1037 1 1270 12 1273 9 3
11 -1 7 -11 -3 -9 -2 -19 3 -22 6 -4 10 -15 10 -26 0 -10 5 -19 10 -19 6 0 10
-9 10 -20 0 -11 5 -20 11 -20 5 0 8 -4 4 -9 -3 -6 1 -16 8 -23 8 -7 12 -20 9
-30 -2 -10 0 -18 6 -18 9 0 30 -45 38 -80 2 -8 8 -16 13 -18 6 -2 11 -11 11
-21 0 -9 8 -28 17 -41 10 -14 17 -26 15 -28 -1 -1 5 -18 13 -38 8 -20 15 -43
15 -51 0 -8 5 -11 10 -8 9 5 15 -15 11 -37 0 -5 4 -8 9 -8 6 0 10 -9 10 -20 0
-11 4 -20 10 -20 5 0 9 -3 8 -7 -1 -5 4 -21 11 -38 7 -16 12 -31 12 -32 0 -2
8 -19 19 -38 11 -20 20 -43 20 -51 0 -8 7 -22 15 -30 8 -9 15 -24 15 -35 0
-10 5 -19 12 -19 6 0 9 -3 6 -6 -4 -3 0 -17 7 -31 8 -15 11 -31 8 -36 -3 -6
-1 -7 5 -3 11 6 17 -13 13 -37 -1 -5 3 -6 8 -3 5 3 12 -5 15 -19 7 -28 49
-125 71 -167 8 -14 15 -33 15 -42 0 -9 5 -16 11 -16 5 0 8 -4 5 -9 -3 -5 1
-14 9 -21 8 -7 15 -20 15 -29 0 -9 11 -38 25 -65 14 -27 25 -55 25 -62 0 -7 7
-20 16 -28 8 -9 12 -20 9 -26 -3 -5 -1 -10 4 -10 6 0 11 -7 11 -15 0 -8 9 -30
19 -49 11 -19 17 -37 14 -40 -4 -3 -1 -6 5 -6 7 0 11 -3 11 -7 -1 -5 4 -24 12
-43 7 -19 12 -39 11 -43 -1 -5 2 -6 7 -3 5 4 12 -7 16 -23 3 -16 24 -66 46
-110 21 -44 39 -87 39 -96 0 -8 5 -15 10 -15 6 0 10 -9 10 -19 0 -11 4 -22 9
-26 5 -3 12 -19 16 -35 4 -17 11 -28 16 -25 5 4 6 -1 3 -9 -3 -9 -1 -16 6 -16
6 0 8 -4 5 -10 -3 -5 -1 -10 5 -10 6 0 9 -4 5 -9 -3 -6 1 -16 8 -23 8 -7 12
-21 9 -32 -3 -13 -1 -17 6 -12 8 5 12 0 12 -13 0 -12 5 -21 10 -21 6 0 9 -3 8
-7 -4 -18 14 -73 23 -67 5 3 9 -3 9 -13 0 -10 7 -28 15 -40 8 -12 16 -33 17
-47 1 -13 5 -23 8 -21 4 2 15 -21 25 -51 10 -30 22 -54 27 -54 4 0 8 -5 8 -11
0 -6 6 -25 14 -42 47 -109 58 -127 66 -122 6 4 8 11 5 16 -4 5 -3 15 2 22 4 6
8 21 8 32 0 11 4 26 8 33 5 7 3 12 -5 12 -8 0 -9 3 -3 8 6 4 12 25 14 47 2 22
6 42 9 45 4 3 8 16 9 30 5 66 8 82 15 86 4 3 4 12 1 21 -5 12 -3 14 7 8 10 -6
11 -4 4 6 -12 20 -14 40 -3 33 5 -3 9 9 9 25 0 18 5 31 13 31 8 0 7 4 -3 10
-8 5 -10 10 -4 10 10 0 30 90 26 113 -1 4 3 7 10 7 6 0 9 2 6 6 -3 3 0 26 8
51 8 25 11 50 7 56 -3 6 -1 7 5 3 11 -7 17 18 13 51 -1 7 5 23 14 36 8 13 12
27 8 30 -3 4 -1 7 6 7 7 0 10 4 6 9 -3 5 0 13 6 17 8 4 7 9 -2 15 -10 6 -10 9
-2 9 9 0 8 8 -3 28 -7 15 -14 33 -14 40 0 7 -4 11 -9 8 -5 -4 -12 12 -16 34
-4 22 -11 40 -16 40 -5 0 -9 9 -9 20 0 11 -4 20 -10 20 -5 0 -10 8 -10 18 -1
26 -35 93 -44 85 -4 -5 -6 -3 -5 2 5 17 -12 75 -22 75 -5 0 -9 6 -9 14 0 8
-13 43 -29 78 -16 35 -30 66 -31 70 0 4 -7 20 -15 35 -8 14 -11 31 -8 36 3 6
1 7 -5 3 -8 -5 -12 0 -12 13 0 11 -5 23 -11 26 -6 4 -8 14 -5 22 3 8 1 11 -4
8 -6 -3 -11 -1 -11 4 -1 6 -2 14 -3 19 -3 8 -44 100 -57 124 -5 10 -9 24 -9
32 0 7 -7 19 -15 26 -8 7 -12 16 -9 21 3 5 0 9 -7 9 -7 0 -10 3 -6 6 3 4 -2
23 -13 44 -11 21 -16 40 -13 44 4 3 1 6 -5 6 -7 0 -12 7 -12 15 0 8 -4 15 -10
15 -5 0 -7 7 -3 15 3 9 -2 24 -11 34 -9 10 -13 21 -9 24 3 4 1 7 -5 7 -6 0
-14 16 -18 35 -3 19 -10 35 -15 35 -5 0 -9 4 -9 9 0 5 -8 26 -17 47 -9 22 -16
42 -15 47 1 4 -2 7 -8 7 -6 0 -9 3 -8 8 1 4 -3 17 -10 28 -6 12 -8 24 -5 28 3
3 1 6 -5 6 -7 0 -12 9 -12 20 0 11 -4 20 -10 20 -5 0 -10 9 -10 19 0 11 -4 22
-10 26 -5 3 -6 13 -3 22 4 11 3 14 -5 9 -11 -6 -17 12 -13 37 0 4 -4 7 -10 7
-5 0 -8 4 -5 9 4 5 1 11 -4 13 -6 2 -12 13 -13 25 0 12 -5 19 -9 17 -4 -3 -8
6 -8 20 0 14 -4 26 -10 26 -5 0 -9 3 -8 8 1 4 -3 17 -10 30 -7 12 -9 22 -5 22
4 0 3 4 -2 8 -12 8 -75 151 -75 170 0 6 -4 12 -9 12 -9 0 -26 48 -23 63 1 4
-3 7 -8 7 -6 0 -10 9 -10 20 0 11 -4 20 -10 20 -5 0 -10 6 -10 13 0 8 -6 27
-14 43 -7 16 -21 47 -31 70 -10 22 -26 46 -37 53 -11 7 -17 8 -14 3 8 -14 -96
-12 -113 2 -11 8 -13 8 -7 -1 4 -7 2 -13 -3 -13 -6 0 -11 6 -11 13 0 8 -3 9
-8 1 -8 -13 -111 -13 -131 0 -10 6 -12 6 -7 -2 10 -16 -16 -15 -33 1 -9 7 -11
7 -8 1 9 -16 -93 -15 -112 0 -11 8 -13 8 -7 -1 4 -7 2 -13 -3 -13 -6 0 -11 6
-11 13 0 8 -3 9 -8 1 -9 -14 -114 -15 -105 -1 4 6 1 7 -8 1 -21 -13 -80 -14
-72 0 4 6 -1 5 -10 -3 -14 -11 -20 -11 -34 0 -11 10 -14 10 -9 2 4 -8 2 -13
-6 -13 -8 0 -20 6 -27 13 -9 7 -11 8 -7 0 7 -13 -71 -13 -93 1 -10 6 -12 6 -7
-2 10 -16 -16 -15 -33 1 -11 10 -13 10 -7 0 4 -8 2 -13 -6 -13 -8 0 -20 6 -27
13 -10 8 -12 8 -7 0 5 -9 -12 -12 -63 -10 -40 1 -67 5 -64 11 4 5 1 6 -8 0
-18 -12 -80 -14 -73 -3 3 5 3 9 0 9 -3 0 -8 -5 -11 -11z"/>
<path d="M4821 2986 c-7 -26 -17 -46 -22 -46 -5 0 -8 -4 -6 -8 4 -15 -66 -161
-75 -156 -5 3 -8 2 -7 -3 4 -22 -2 -43 -17 -57 -8 -9 -12 -16 -8 -16 4 0 0 -8
-8 -17 -9 -10 -19 -28 -23 -41 -3 -12 -10 -20 -14 -18 -4 3 -8 -1 -8 -8 0 -7
-14 -33 -31 -59 -18 -25 -32 -50 -32 -56 0 -6 -4 -11 -10 -11 -5 0 -10 -7 -10
-15 0 -8 -4 -15 -8 -15 -10 0 -72 -87 -72 -101 0 -6 -4 -7 -10 -4 -5 3 -10 -1
-10 -9 0 -8 -12 -24 -26 -35 -15 -12 -23 -21 -19 -21 4 0 -9 -17 -29 -37 -20
-21 -36 -41 -36 -46 0 -4 -4 -6 -9 -2 -5 3 -12 -4 -16 -15 -3 -11 -11 -20 -16
-20 -5 0 -9 -7 -9 -16 0 -8 -4 -13 -8 -10 -4 2 -9 -7 -10 -20 -1 -18 2 -23 11
-18 9 6 9 4 1 -7 -6 -8 -11 -27 -12 -44 -1 -23 1 -26 8 -15 5 8 10 10 10 4 0
-6 -3 -14 -7 -18 -12 -12 -12 -36 0 -36 8 0 8 -3 2 -8 -16 -11 -19 -46 -3 -36
10 6 10 4 2 -7 -6 -8 -11 -27 -12 -44 -1 -23 1 -26 8 -15 5 8 10 10 10 4 0 -6
-3 -14 -7 -18 -4 -3 -8 -16 -10 -27 -2 -14 1 -18 9 -13 8 5 8 1 -1 -10 -13
-15 -13 -19 0 -27 8 -5 9 -9 4 -9 -6 0 -11 -9 -12 -20 -1 -13 2 -18 10 -13 7
4 6 -1 -2 -11 -13 -15 -13 -19 0 -27 8 -5 9 -9 3 -9 -12 0 -13 -69 0 -89 6
-10 6 -12 -2 -7 -7 4 -12 2 -12 -3 0 -6 6 -11 13 -11 7 0 8 -3 2 -8 -16 -11
-19 -46 -3 -36 9 6 9 3 -1 -10 -13 -15 -13 -19 0 -27 8 -5 9 -9 3 -9 -6 0 -11
-53 -12 -147 -4 -244 -12 -366 -25 -379 -4 -4 -7 -12 -7 -18 0 -6 5 -4 10 4 5
8 10 10 10 4 0 -5 -4 -14 -10 -20 -5 -5 -11 -22 -12 -36 -1 -15 -6 -24 -10
-22 -7 5 -12 -18 -9 -39 1 -4 -6 -10 -14 -13 -8 -4 -15 -13 -15 -20 0 -8 -7
-17 -15 -20 -8 -4 -15 -11 -15 -18 -1 -11 -79 -52 -92 -48 -5 1 -8 -2 -8 -7 0
-9 -91 -26 -137 -25 -13 0 -23 -3 -23 -7 0 -3 -18 -6 -40 -6 -24 0 -37 4 -33
10 4 6 1 7 -8 1 -22 -13 -81 -15 -73 -2 5 8 3 8 -7 2 -8 -5 -34 -9 -59 -9 -33
0 -45 -4 -45 -15 0 -8 -4 -18 -10 -22 -6 -5 -5 -8 2 -8 9 0 10 -7 3 -25 -6
-16 -6 -25 0 -25 5 0 7 -7 4 -15 -3 -8 1 -22 10 -30 9 -9 16 -12 16 -7 0 6 18
9 40 9 22 -1 40 -6 40 -11 0 -6 4 -5 9 2 9 15 42 13 53 -3 5 -6 8 -6 8 1 0 16
329 16 349 0 11 -8 13 -8 7 1 -5 9 0 12 18 11 15 -1 26 -7 26 -13 0 -6 3 -5 8
1 9 14 74 14 84 -1 5 -6 8 -6 8 2 0 15 50 13 50 -2 0 -6 3 -5 8 1 9 15 82 14
82 -1 0 -6 3 -5 8 1 9 14 74 14 84 -1 5 -6 8 -6 8 2 0 15 50 13 50 -2 0 -6 3
-5 8 1 9 15 82 14 82 -1 0 -6 3 -5 8 1 9 14 74 14 84 -1 5 -7 8 -6 8 1 0 16
629 16 649 0 12 -9 13 -8 7 2 -6 10 -2 13 15 10 13 -2 27 -7 31 -13 5 -6 8 -5
8 3 0 6 7 12 15 12 12 0 15 14 15 65 0 52 -3 65 -16 65 -9 0 -12 5 -8 12 5 7
3 8 -7 2 -20 -12 -142 -12 -151 1 -5 7 -8 6 -8 -1 0 -7 -24 -10 -72 -8 -40 1
-74 3 -75 5 -5 3 -16 5 -75 13 -32 4 -58 12 -58 17 0 5 -11 9 -25 9 -14 0 -25
5 -25 12 0 6 -3 9 -6 6 -3 -3 -20 9 -37 27 -46 49 -57 63 -57 75 0 5 -6 10
-12 10 -9 0 -8 4 2 10 9 6 10 10 3 10 -11 0 -29 55 -25 74 2 4 -3 14 -9 22 -9
11 -9 14 1 14 9 0 9 4 3 12 -11 14 -12 31 -15 195 -1 57 -6 99 -11 96 -5 -3
-4 3 2 14 7 14 7 23 -1 31 -9 9 -9 12 2 12 11 0 11 3 2 12 -7 7 -8 17 -1 30 7
12 6 18 -1 18 -7 0 -8 6 -1 19 6 10 7 21 3 25 -9 10 -9 50 2 57 5 4 5 13 0 20
-10 17 -12 59 -2 59 4 0 4 11 -1 23 -5 13 -5 30 -1 37 5 8 5 21 0 30 -5 9 -4
23 1 33 7 11 6 17 -1 17 -7 0 -8 6 -1 19 6 10 7 21 3 25 -9 10 -9 50 2 57 5 4
5 13 0 20 -10 17 -12 59 -2 59 4 0 4 10 -1 23 -5 13 -5 30 -1 38 5 8 5 21 0
29 -5 8 -5 22 1 32 7 12 6 18 -1 18 -7 0 -8 6 -1 19 6 10 7 21 3 25 -9 10 -9
50 2 57 5 4 5 13 0 20 -10 17 -12 59 -2 59 4 0 4 11 -1 23 -5 13 -5 30 -1 37
5 8 5 21 0 30 -5 9 -4 23 1 33 7 11 6 17 -1 17 -7 0 -8 6 -1 19 6 10 7 21 3
25 -9 10 -9 50 2 57 5 4 5 13 0 20 -10 17 -12 59 -2 59 4 0 4 11 -1 23 -5 13
-5 30 -1 37 5 8 5 21 0 30 -5 9 -4 23 1 33 7 11 6 17 -1 17 -7 0 -8 6 -1 19 6
10 7 21 3 25 -9 10 -9 50 2 57 5 4 5 13 0 20 -10 17 -12 59 -2 59 4 0 4 11 -1
23 -5 13 -5 30 -1 37 5 8 4 22 -1 32 -7 13 -6 18 3 18 10 0 10 2 0 9 -8 4 -13
11 -12 15 1 4 0 11 -2 17 -2 5 -9 -10 -17 -35z"/>
</g>
</svg>
